<svg xmlns="http://www.w3.org/2000/svg" width="32" height="32" viewBox="0 0 32 32" fill="none">
  <path d="M15.0271 6.59536C16.3235 10.83 16.6966 15.2934 16.1211 19.6845C19.4032 17.9888 21.9819 16.8557 25.5844 16.3087C27.5085 15.9529 29.4706 15.8478 31.4217 15.9961C31.4217 15.9101 31.4217 15.8164 31.4217 15.7382C31.4217 14.7224 31.4217 13.7221 31.3592 12.7297C29.5415 12.4068 27.6753 12.4814 25.8891 12.9485C20.716 14.0503 18.5749 15.9883 18.5749 15.9883C19.0088 11.7386 18.7448 7.44655 17.7934 3.28206C17.4724 2.14494 17.0323 1.04483 16.4806 0C16.1993 0 15.9414 0 15.6992 0C14.5036 0 13.3548 1.24013e-05 12.167 0.0859709C13.3804 2.132 14.3408 4.31779 15.0271 6.59536Z" fill="#12337C"/>
  <path d="M20.2706 1.47693C21.1199 5.05777 21.3681 8.75487 21.0051 12.4171C23.6077 11.0709 26.4589 10.273 29.3822 10.0728C29.726 10.0728 30.781 10.0728 31.2576 10.0728C31.0925 7.06163 30.7638 4.06168 30.273 1.08621C26.8227 0.519066 23.3418 0.156355 19.8486 0C20.0283 0.539194 20.1221 0.914297 20.2706 1.47693Z" fill="#12337C"/>
  <path d="M22.318 19.3641C19.1381 19.9727 16.1361 21.2895 13.5346 23.2166C14.7011 17.3243 13.965 11.2137 11.4325 5.76704C10.545 3.84059 9.46637 2.00805 8.21296 0.296951C5.76705 0.500126 3.39928 0.797069 1.17999 1.17216C-0.39333 10.8296 -0.39333 20.6781 1.17999 30.3355C10.8383 31.8983 20.685 31.8983 30.3434 30.3355C30.9553 26.6441 31.3234 22.9164 31.4452 19.1766C28.7492 18.6295 26.7565 18.5045 22.318 19.3641Z" fill="#12337C"/>
</svg>
