<svg id="Layer_1" data-name="Layer 1" xmlns="http://www.w3.org/2000/svg" viewBox="0 0 60 60"><defs><style>.cls-1{fill:#e82629;}.cls-2{fill:none;}.cls-3{fill:#dfedf6;}.cls-4{fill:#bddbc5;}.cls-5{fill:#d7eae5;}.cls-6{fill:#8dc96f;}.cls-7{fill:#b6d7ec;}.cls-8{fill:#e6272c;}.cls-9{fill:#a51e2b;}.cls-10{fill:#7e1f19;}</style></defs><title>epmc-icon</title><path class="cls-1" d="M35.18,6A18.56,18.56,0,0,0,23.71,9.94l-.05,0-.07.07a18.51,18.51,0,0,0-7,13.11c0,.49-.07,1-.07,1.48A18.61,18.61,0,0,0,22,37.83l.34.33a1.14,1.14,0,0,0,.11.11l.24.22.13.11.23.2.14.12.23.19.14.12.24.18.14.11.25.19.14.09.29.21.1.07.81.52.11.06.31.18.14.08.28.16.15.08.28.14.16.08.29.13.15.08.31.13.13.06.37.16.08,0,.46.18.1,0,.77.26.24.07.64.18.27.06.63.15a3,3,0,0,1,.32.06l.6.1.32,0,.61.08.31,0,.64,0h.29l.64,0h0a18.67,18.67,0,0,0,4-.43h0l.11,0c.25,0,.49-.11.74-.18l.13,0c.25-.06.49-.14.73-.21l.14,0,.71-.24.17-.07.65-.26.22-.1.58-.27.28-.14.5-.27.33-.19.44-.25.35-.23c.13-.08.27-.16.39-.25l0,0A18.64,18.64,0,0,0,35.18,6ZM19.26,21.92a10.47,10.47,0,0,1-1.18.66A10.47,10.47,0,0,0,19.26,21.92Zm1.08-.8c-.3.25-.62.48-.94.7C19.72,21.6,20,21.37,20.34,21.12Zm.12-.11c.29-.26.58-.52.85-.81C21,20.49,20.75,20.75,20.46,21Zm.9-.88a10.54,10.54,0,0,0,2.7-6.07h0a.28.28,0,0,1,0,.09A10.49,10.49,0,0,1,21.36,20.13Z" transform="translate(0)"/><path class="cls-1" d="M53.82,24.63A18.64,18.64,0,0,0,23.71,9.94l-.05,0-.07.07a18.68,18.68,0,0,0-3.77,4h4.24a.28.28,0,0,1,0,.09,10.58,10.58,0,0,1-6,8.43h0l-.31.14-.05,0-.29.12-.07,0L17,23,17,23l-.37.12c0,.49-.07,1-.07,1.48A18.61,18.61,0,0,0,22,37.83,13.85,13.85,0,0,1,33.16,32.2a14.42,14.42,0,0,1,2,.14V43.28h0a18.67,18.67,0,0,0,4-.43V33.56a14,14,0,0,1,6.5,6.49A18.63,18.63,0,0,0,53.82,24.63Z" transform="translate(0)"/><path class="cls-2" d="M22.46,38.27l.24.22Z" transform="translate(0)"/><path class="cls-2" d="M22.83,38.6l.23.2Z" transform="translate(0)"/><path class="cls-2" d="M23.2,38.92l.23.19Z" transform="translate(0)"/><path class="cls-2" d="M24.73,40.08l.81.52Z" transform="translate(0)"/><path class="cls-2" d="M24,39.52l.25.19Z" transform="translate(0)"/><path class="cls-2" d="M23.57,39.23l.24.18Z" transform="translate(0)"/><path class="cls-2" d="M24.34,39.8l.29.21Z" transform="translate(0)"/><path class="cls-2" d="M17.7,22.75l-.29.12Z" transform="translate(0)"/><path class="cls-2" d="M18.06,22.59l-.31.14Z" transform="translate(0)"/><path class="cls-2" d="M22,37.83l.34.33Z" transform="translate(0)"/><path class="cls-2" d="M17.34,22.9,17,23Z" transform="translate(0)"/><path class="cls-2" d="M18.08,22.58a10.58,10.58,0,0,0,6-8.43.28.28,0,0,0,0-.09h0A10.6,10.6,0,0,1,18.08,22.58Z" transform="translate(0)"/><path class="cls-2" d="M16.6,23.15,17,23Z" transform="translate(0)"/><path class="cls-2" d="M27.85,41.78l.37.16Z" transform="translate(0)"/><path class="cls-2" d="M25.65,40.66l.31.18Z" transform="translate(0)"/><path class="cls-2" d="M34.21,43.25l-.64,0-.31,0-.61-.08-.32,0-.6-.1a3,3,0,0,0-.32-.06l-.63-.15-.27-.06-.64-.18-.24-.07-.77-.26-.1,0L28.3,42a18.71,18.71,0,0,0,6.84,1.31l-.64,0Z" transform="translate(0)"/><path class="cls-2" d="M27.41,41.59l.31.13Z" transform="translate(0)"/><path class="cls-2" d="M45.24,40.32l-.35.23-.44.25-.33.19-.5.27-.28.14-.58.27-.22.1-.65.26-.17.07-.71.24-.14,0c-.24.07-.48.15-.73.21l-.13,0c-.25.07-.49.13-.74.18l-.11,0a18.7,18.7,0,0,0,6.5-2.8l0,0C45.51,40.16,45.37,40.24,45.24,40.32Z" transform="translate(0)"/><path class="cls-2" d="M26.1,40.92l.28.16Z" transform="translate(0)"/><path class="cls-2" d="M26.53,41.16l.28.14Z" transform="translate(0)"/><path class="cls-2" d="M27,41.38l.29.13Z" transform="translate(0)"/><path class="cls-3" d="M1.56,40.74a5.48,5.48,0,0,0,6.56,8.62V45.09A8.72,8.72,0,0,1,1.56,40.74Z" transform="translate(0)"/><path class="cls-4" d="M1.56,40.74a8.72,8.72,0,0,0,6.56,4.35V39.76a5.46,5.46,0,0,0-6.56,1Z" transform="translate(0)"/><path class="cls-5" d="M.44,36.46a8.72,8.72,0,0,0,1.12,4.28,5.46,5.46,0,0,1,6.56-1V27.84A8.66,8.66,0,0,0,.44,36.46Z" transform="translate(0)"/><path class="cls-5" d="M12.14,28.32V44.61a8.69,8.69,0,0,0,0-16.29Z" transform="translate(0)"/><path class="cls-6" d="M23.71,9.94A10.58,10.58,0,1,0,8.12,22.08V10H23.59l.07-.07Z" transform="translate(0)"/><path class="cls-6" d="M19.82,14.06H12.14V23.5a9.77,9.77,0,0,0,1.44.1,10.75,10.75,0,0,0,3-.43A18.54,18.54,0,0,1,19.82,14.06Z" transform="translate(0)"/><path class="cls-7" d="M25.63,5.35A2.68,2.68,0,1,0,23,2.68,2.67,2.67,0,0,0,25.63,5.35Z" transform="translate(0)"/><path class="cls-7" d="M39.16,55.29H22.8A13.87,13.87,0,0,0,45.66,40.05a18.7,18.7,0,0,1-6.5,2.8Z" transform="translate(0)"/><path class="cls-7" d="M28.22,41.94l-.37-.16-.13-.06-.31-.13-.15-.08L27,41.38l-.16-.08-.28-.14-.15-.08-.28-.16L26,40.84l-.31-.18-.11-.06-.81-.52-.1-.07-.29-.21-.14-.09L24,39.52l-.14-.11-.24-.18-.14-.12-.23-.19-.14-.12-.23-.2-.13-.11-.24-.22a1.14,1.14,0,0,1-.11-.11L22,37.83A13.86,13.86,0,0,0,20.3,51.27H35.14v-8A18.71,18.71,0,0,1,28.3,42Z" transform="translate(0)"/><path class="cls-8" d="M44.45,40.8l.44-.25Z" transform="translate(0)"/><path class="cls-8" d="M41,42.34l.71-.24Z" transform="translate(0)"/><path class="cls-9" d="M39.16,33.56v9.29h0l.11,0c.25,0,.49-.11.74-.18l.13,0c.25-.06.49-.14.73-.21l.14,0,.71-.24.17-.07.65-.26.22-.1.58-.27.28-.14.5-.27.33-.19.44-.25.35-.23c.13-.08.27-.16.39-.25l0,0h0A14,14,0,0,0,39.16,33.56Z" transform="translate(0)"/><path class="cls-9" d="M33.16,32.2A13.85,13.85,0,0,0,22,37.83h0l.34.33a1.14,1.14,0,0,0,.11.11l.24.22.13.11.23.2.14.12.23.19.14.12.24.18.14.11.25.19.14.09.29.21.1.07.81.52.11.06.31.18.14.08.28.16.15.08.28.14.16.08.29.13.15.08.31.13.13.06.37.16.08,0,.46.18.1,0,.77.26.24.07.64.18.27.06.63.15a3,3,0,0,1,.32.06l.6.1.32,0,.61.08.31,0,.64,0h.29l.64,0h0V32.34A14.42,14.42,0,0,0,33.16,32.2Z" transform="translate(0)"/><path class="cls-10" d="M17,23l.3-.1.07,0,.29-.12.05,0,.31-.14h0a10.6,10.6,0,0,0,6-8.52H19.82a18.56,18.56,0,0,0-3.22,9.09L17,23Z" transform="translate(0)"/></svg>