<?xml version="1.0" encoding="UTF-8"?>
<svg version="1.1" xmlns="http://www.w3.org/2000/svg" width="520" height="488">
<path d="M0 0 C26.51942379 21.87852462 39.56923733 51.22766962 43 85 C44.33753997 103.25848213 39.46427559 122.56436967 32.875 139.5 C26.49277726 155.95877834 23.42419588 174.03853741 30.79833984 190.81640625 C39.11650364 208.6700261 50.92049675 218.34642261 69 226 C69.78632813 226.35835937 70.57265625 226.71671875 71.3828125 227.0859375 C74.87582287 228.3058844 78.41713164 228.7828209 82.0625 229.3125 C114.70124723 234.51495107 143.56755426 247.99284525 163.6015625 275.5078125 C173.56743536 289.67792099 179.29220703 304.12519013 183 321 C183.16516113 321.7513623 183.33032227 322.50272461 183.50048828 323.27685547 C189.7738225 352.76217503 183.51688606 383.98836333 167.27734375 409.30078125 C157.02889363 424.73697278 144.79195776 436.35944834 129 446 C128.39945801 446.37495605 127.79891602 446.74991211 127.18017578 447.13623047 C100.80990745 463.2057264 68.06032745 464.79783365 38.78125 457.78125 C21.2212574 453.30079031 6.83300457 445.60785638 -7 434 C-7.85851562 433.31679688 -8.71703125 432.63359375 -9.6015625 431.9296875 C-25.2221661 418.88772322 -36.78177368 399.48109449 -42 380 C-42.22848633 379.1632373 -42.45697266 378.32647461 -42.69238281 377.46435547 C-50.73666831 347.1649391 -47.72884469 316.67677911 -33.3125 288.6875 C-27.30856346 276.90151153 -25.66790655 263.52461489 -29.5625 250.6875 C-34.88868647 236.93285705 -42.88929398 228.67168819 -55.97265625 222.26171875 C-67.27047485 217.55307952 -79.75749443 217.24976007 -91.1875 221.67578125 C-104.63546259 228.0075303 -112.2976901 236.31798709 -118 250 C-122.23039007 262.54678829 -120.8595215 275.9755477 -115.12207031 287.81103516 C-114.46831438 289.10488545 -113.81441836 290.39866496 -113.16040039 291.69238281 C-107.33499327 303.26902305 -104.57779192 315.34594123 -102 328 C-101.79117188 329.02351563 -101.58234375 330.04703125 -101.3671875 331.1015625 C-97.22117557 363.82859286 -107.69524086 394.65171647 -127.4375 420.3125 C-147.46830071 445.53058738 -176.65079185 457.78409392 -207.921875 461.77734375 C-239.01007691 465.10822253 -270.10185507 453.26127949 -294 434 C-303.80187594 425.70690816 -311.36582591 415.94744703 -318 405 C-318.38027344 404.37287109 -318.76054687 403.74574219 -319.15234375 403.09960938 C-333.53844173 378.65348203 -336.98411933 348.3584983 -331 321 C-330.75056641 319.84443604 -330.75056641 319.84443604 -330.49609375 318.66552734 C-326.3586581 300.05089789 -318.99541157 284.80502727 -307 270 C-306.27039063 269.08605469 -305.54078125 268.17210937 -304.7890625 267.23046875 C-289.94954387 249.71542352 -268.86722321 237.83495957 -246.8125 232.375 C-245.62358154 232.07070068 -244.43466309 231.76640137 -243.2097168 231.45288086 C-236.92863498 229.87223676 -230.7116261 228.5464926 -224.3125 227.5625 C-209.65181039 225.00739575 -195.81539246 216.57024586 -186.75 204.8125 C-176.33026563 189.60475004 -172.62589503 173.63489367 -175.5703125 155.484375 C-176.2711554 152.60723047 -177.07401073 149.81210568 -178 147 C-178.22816406 146.28457031 -178.45632812 145.56914062 -178.69140625 144.83203125 C-179.15882019 143.40842195 -179.63584757 141.9879427 -180.12109375 140.5703125 C-191.67451482 106.78297442 -195.09508139 72.28090383 -179 39 C-166.34326761 14.17799684 -144.55425066 -8.59861017 -117.73095703 -17.77636719 C-76.65037426 -31.03539118 -34.47130102 -27.47743781 0 0 Z " fill="#000000" transform="translate(334,26)"/>
</svg>
