<?xml version="1.0" encoding="UTF-8"?>
<svg version="1.1" xmlns="http://www.w3.org/2000/svg" width="164" height="165" viewBox="15 14 164 165">
<path d="M0 0 C54.12 0 108.24 0 164 0 C164 54.45 164 108.9 164 165 C109.88 165 55.76 165 0 165 C0 110.55 0 56.1 0 0 Z M21 22 C21 61.93 21 101.86 21 143 C35.52 143 50.04 143 65 143 C65 103.07 65 63.14 65 22 C50.48 22 35.96 22 21 22 Z M86 22 C86 38.17 86 54.34 86 71 C104.81 71 123.62 71 143 71 C143 54.83 143 38.66 143 22 C124.19 22 105.38 22 86 22 Z M86 92 C86 108.83 86 125.66 86 143 C104.81 143 123.62 143 143 143 C143 126.17 143 109.34 143 92 C124.19 92 105.38 92 86 92 Z " fill="#EB212E" transform="translate(15,14)"/>
</svg>
